# xmcd
#
# Track frame offsets:
#	150
#	13308
#	26257
#	40868
#	50531
#	63762
#	75254
#	89484
#	102707
#	118149
#	130394
#	144040
#	158739
#	172469
#	185546
#	200443
#	213009
#	224847
#	243926
#
# Disc length: 3410 seconds
#
# Revision: 0
# Processed by: cddbd v1.5.1PL2 Copyright (c) Steve Scherf et al.
# Submitted via: dBpowerAMP V4.0
#
DISCID=100d5013
DTITLE=Various Artist - The Bluesmen
DYEAR=1900
DGENRE=Blues
TTITLE0=T Bone Walker - Mean Old World
TTITLE1=BB King - Everyday I have the Blues
TTITLE2=Lonie Johnson - Lonesome jail Blues
TTITLE3=Buddy Ledbetter - Midnight Special
TTITLE4=Josh White - Frankie and Johnnie
TTITLE5=Bigh Joe Turner - Howlin' Winds
TTITLE6=Jimmy Rushing - Going To Chicago Blues
TTITLE7=Huddy Ledbetter - Take This Hammer
TTITLE8=BB King - BB's Boogie
TTITLE9=Jimmy Rushing - Jimmy's Blues
TTITLE10=T Bone Walker - Call it Stormy Monday
TTITLE11=Lonie Johnson  - Lonnie's Got The blues
TTITLE12=Josh White - Nodody Knows You When You're Down and Out
TTITLE13=Huddy Ledbetter - Goodnight Irene
TTITLE14=T Bone Walker - I Got A Break Baby
TTITLE15=BB King - Please Love Me
TTITLE16=Big Joe Turner - Kansas City Blues
TTITLE17=Jimmy Rushing - Gee Baby Ain't I Good To You
TTITLE18=Huddy Ledbetter - Boll Weevil Blues
EXTD=
EXTT0=
EXTT1=
EXTT2=
EXTT3=
EXTT4=
EXTT5=
EXTT6=
EXTT7=
EXTT8=
EXTT9=
EXTT10=
EXTT11=
EXTT12=
EXTT13=
EXTT14=
EXTT15=
EXTT16=
EXTT17=
EXTT18=
PLAYORDER=
